<?xml version="1.0" encoding="UTF-8" standalone="no"?>
<!DOCTYPE svg PUBLIC "-//W3C//DTD SVG 1.1//EN" "http://www.w3.org/Graphics/SVG/1.1/DTD/svg11.dtd">
<svg width="100%" height="100%" viewBox="0 0 87 161" version="1.1" xmlns="http://www.w3.org/2000/svg" xmlns:xlink="http://www.w3.org/1999/xlink" xml:space="preserve" xmlns:serif="http://www.serif.com/" style="fill-rule:evenodd;clip-rule:evenodd;stroke-linejoin:round;stroke-miterlimit:2;">
    <g transform="matrix(1,0,0,1,-3071,-1683)">
        <g transform="matrix(0.628032,0,0,0.832432,966.728,3633.58)">
            <g transform="matrix(0.121927,5.55031e-18,1.11006e-17,0.0945202,3290.91,-2350.58)">
                <path d="M840.238,838.156L836.816,1026.53C847.086,1112.14 778.594,1052.21 778.594,1052.21C752.91,997.41 686.121,922.066 686.121,922.066C598.785,824.453 508.602,901.516 508.602,901.516C486.922,927.207 508.602,934.457 508.602,934.457C570.879,957.363 639.398,1057.98 667.832,1114.54C700.523,1179.55 716.781,1252.66 766.73,1308.2C816.219,1363.21 882.574,1387.4 935.105,1438.02C997.871,1498.47 987.336,1515.08 994.359,1637.88C995.629,1660.11 960.938,2113.83 956.777,2113.83L1456.23,2113.83L1408.77,1458.06C1439.59,1355.31 1494.39,982 1494.39,982L1618.83,610.969C1632.52,556.176 1601.7,532.195 1601.7,532.195C1557.19,511.652 1529.78,566.449 1529.78,566.449L1426.82,786.641C1391.01,836.387 1393.72,766.086 1393.72,766.086L1445.29,321C1452.15,249.078 1417.9,231.949 1417.9,231.949C1344.84,215.965 1332.28,314.148 1332.28,314.148L1242.21,695.176C1233.89,745.207 1205.2,744.02 1205.2,744.02C1183.16,741.191 1180.77,693.645 1180.77,693.645L1159.89,163.449C1150.77,72.122 1094.36,81.254 1094.36,81.254C1029.29,91.528 1032.7,163.453 1032.7,163.453L1014.97,692.859C1001.26,789.219 964.73,692.859 964.73,692.859L864.207,266.195C843.668,201.129 795.715,211.398 795.715,211.398C740.914,236.52 760.762,323.582 760.762,323.582C760.762,323.582 792.285,556.176 840.238,838.156Z" style="fill:rgb(129,23,51);fill-rule:nonzero;"/>
            </g>
        </g>
    </g>
</svg>
